<svg width="24" height="24" viewBox="0 0 24 24" fill="none" xmlns="http://www.w3.org/2000/svg">
<path fill-rule="evenodd" clip-rule="evenodd" d="M7.29289 1.29289C7.68342 0.902369 8.31658 0.902369 8.70711 1.29289L10.5871 3.17289C10.9776 3.56342 10.9776 4.19658 10.5871 4.58711C10.1966 4.97763 9.56342 4.97763 9.17289 4.58711L7.29289 2.70711C6.90237 2.31658 6.90237 1.68342 7.29289 1.29289Z" fill="#FEFEFE"/>
<path fill-rule="evenodd" clip-rule="evenodd" d="M16.7071 1.29289C17.0976 1.68342 17.0976 2.31658 16.7071 2.70711L14.8271 4.58711C14.4366 4.97763 13.8034 4.97763 13.4129 4.58711C13.0224 4.19658 13.0224 3.56342 13.4129 3.17289L15.2929 1.29289C15.6834 0.902369 16.3166 0.902369 16.7071 1.29289Z" fill="#FEFEFE"/>
<path fill-rule="evenodd" clip-rule="evenodd" d="M11.9999 3.9928C11.7294 3.9928 11.4616 4.04762 11.2128 4.15395C10.964 4.26028 10.7393 4.41592 10.5523 4.61147C10.3653 4.80702 10.2199 5.03844 10.1248 5.29175C10.0297 5.54505 9.98686 5.81501 9.99895 6.08531C9.99962 6.10019 9.99995 6.11509 9.99995 6.13V7.13C9.99995 7.68228 9.55223 8.13 8.99995 8.13C8.44766 8.13 7.99995 7.68228 7.99995 7.13V6.15075C7.97933 5.61855 8.06512 5.08751 8.25239 4.58875C8.44246 4.08251 8.73312 3.62003 9.10685 3.22922C9.48057 2.83841 9.9296 2.52736 10.4268 2.31486C10.9241 2.10236 11.4592 1.9928 11.9999 1.9928C12.5407 1.9928 13.0758 2.10236 13.5731 2.31486C14.0703 2.52736 14.5193 2.83841 14.8931 3.22922C15.2668 3.62003 15.5574 4.08251 15.7475 4.58875C15.9348 5.08751 16.0206 5.61855 15.9999 6.15075V7.13C15.9999 7.68228 15.5522 8.13 14.9999 8.13C14.4477 8.13 13.9999 7.68228 13.9999 7.13V6.13C13.9999 6.11509 14.0003 6.10019 14.0009 6.08531C14.013 5.81501 13.9702 5.54505 13.8751 5.29175C13.78 5.03844 13.6346 4.80702 13.4476 4.61147C13.2606 4.41592 13.0359 4.26028 12.7871 4.15395C12.5383 4.04762 12.2705 3.9928 11.9999 3.9928Z" fill="#FEFEFE"/>
<path fill-rule="evenodd" clip-rule="evenodd" d="M10 8C9.20435 8 8.44129 8.31607 7.87868 8.87868C7.31607 9.44129 7 10.2044 7 11V14C7 16.7477 9.25229 19 12 19C14.7477 19 17 16.7477 17 14V11C17 10.2044 16.6839 9.44129 16.1213 8.87868C15.5587 8.31607 14.7956 8 14 8H10ZM6.46447 7.46447C7.40215 6.52678 8.67392 6 10 6H14C15.3261 6 16.5979 6.52678 17.5355 7.46447C18.4732 8.40215 19 9.67392 19 11V14C19 17.8523 15.8523 21 12 21C8.14772 21 5 17.8523 5 14V11C5 9.67392 5.52678 8.40215 6.46447 7.46447Z" fill="#FEFEFE"/>
<path fill-rule="evenodd" clip-rule="evenodd" d="M12 10C12.5523 10 13 10.4477 13 11V20C13 20.5523 12.5523 21 12 21C11.4477 21 11 20.5523 11 20V11C11 10.4477 11.4477 10 12 10Z" fill="#FEFEFE"/>
<path fill-rule="evenodd" clip-rule="evenodd" d="M3 4C3.55228 4 4 4.44772 4 5C4 6.58934 5.21443 7.85832 6.63308 8.00533C7.18242 8.06225 7.5816 8.55373 7.52467 9.10308C7.46775 9.65242 6.97627 10.0516 6.42693 9.99467C3.98557 9.74168 2 7.61066 2 5C2 4.44772 2.44772 4 3 4Z" fill="#FEFEFE"/>
<path fill-rule="evenodd" clip-rule="evenodd" d="M1 13C1 12.4477 1.44772 12 2 12H6C6.55228 12 7 12.4477 7 13C7 13.5523 6.55228 14 6 14H2C1.44772 14 1 13.5523 1 13Z" fill="#FEFEFE"/>
<path fill-rule="evenodd" clip-rule="evenodd" d="M7.79887 16.9524C7.82514 17.5041 7.39923 17.9726 6.84757 17.9989C5.28581 18.0732 4 19.4287 4 21C4 21.5523 3.55228 22 3 22C2.44772 22 2 21.5523 2 21C2 18.3713 4.11419 16.1268 6.75243 16.0011C7.30409 15.9749 7.7726 16.4008 7.79887 16.9524Z" fill="#FEFEFE"/>
<path fill-rule="evenodd" clip-rule="evenodd" d="M20.9701 4C21.5223 4 21.9701 4.44772 21.9701 5C21.9701 7.60626 19.9891 9.74036 17.5747 9.99451C17.0255 10.0523 16.5334 9.65393 16.4755 9.10468C16.4177 8.55543 16.8161 8.06331 17.3654 8.00549C18.751 7.85964 19.9701 6.59374 19.9701 5C19.9701 4.44772 20.4178 4 20.9701 4Z" fill="#FEFEFE"/>
<path fill-rule="evenodd" clip-rule="evenodd" d="M17 13C17 12.4477 17.4477 12 18 12H22C22.5523 12 23 12.4477 23 13C23 13.5523 22.5523 14 22 14H18C17.4477 14 17 13.5523 17 13Z" fill="#FEFEFE"/>
<path fill-rule="evenodd" clip-rule="evenodd" d="M16.2011 16.9524C16.2274 16.4008 16.6959 15.9749 17.2475 16.0011C19.8858 16.1268 22 18.3713 22 21C22 21.5523 21.5523 22 21 22C20.4477 22 20 21.5523 20 21C20 19.4287 18.7142 18.0732 17.1524 17.9989C16.6007 17.9726 16.1748 17.5041 16.2011 16.9524Z" fill="#FEFEFE"/>
</svg>
