<svg width="24" height="24" viewBox="0 0 24 24" fill="none" xmlns="http://www.w3.org/2000/svg">
<path fill-rule="evenodd" clip-rule="evenodd" d="M6 3C5.73478 3 5.48043 3.10536 5.29289 3.29289C5.10536 3.48043 5 3.73478 5 4V13.5C5 14.0523 4.55228 14.5 4 14.5C3.44772 14.5 3 14.0523 3 13.5V4C3 3.20435 3.31607 2.44129 3.87868 1.87868C4.44129 1.31607 5.20435 1 6 1H14.5C14.7652 1 15.0196 1.10536 15.2071 1.29289L20.7071 6.79289C20.8946 6.98043 21 7.23478 21 7.5V20C21 20.7957 20.6839 21.5587 20.1213 22.1213C19.5587 22.6839 18.7957 23 18 23H12.5C11.9477 23 11.5 22.5523 11.5 22C11.5 21.4477 11.9477 21 12.5 21H18C18.2652 21 18.5196 20.8946 18.7071 20.7071C18.8946 20.5196 19 20.2652 19 20V7.91421L14.0858 3H6Z" fill="#FEFEFE"/>
<path fill-rule="evenodd" clip-rule="evenodd" d="M14 1C14.5523 1 15 1.44772 15 2V7H20C20.5523 7 21 7.44772 21 8C21 8.55228 20.5523 9 20 9H14C13.4477 9 13 8.55228 13 8V2C13 1.44772 13.4477 1 14 1Z" fill="#FEFEFE"/>
<path fill-rule="evenodd" clip-rule="evenodd" d="M11.905 12.9949C11.7606 12.9949 11.6175 13.0233 11.484 13.0786C11.3507 13.1338 11.2296 13.2147 11.1275 13.3167C11.1274 13.3168 11.1277 13.3165 11.1275 13.3167L5.89288 18.561L5.37685 20.6199L7.4386 20.0979L12.6829 14.8729C12.6827 14.873 12.6831 14.8727 12.6829 14.8729C12.7848 14.7708 12.8662 14.6492 12.9214 14.516C12.9767 14.3825 13.0051 14.2394 13.0051 14.095C13.0051 13.9505 12.9767 13.8075 12.9214 13.674C12.8661 13.5405 12.7851 13.4192 12.6829 13.3171C12.5808 13.2149 12.4595 13.1339 12.326 13.0786C12.1925 13.0233 12.0495 12.9949 11.905 12.9949ZM10.7187 11.2309C11.0948 11.0751 11.4979 10.9949 11.905 10.9949C12.3121 10.9949 12.7153 11.0751 13.0914 11.2309C13.4675 11.3866 13.8093 11.615 14.0971 11.9029C14.385 12.1907 14.6134 12.5325 14.7691 12.9086C14.9249 13.2847 15.0051 13.6879 15.0051 14.095C15.0051 14.5021 14.9249 14.9052 14.7691 15.2813C14.6134 15.6575 14.385 15.9992 14.0971 16.2871L8.65582 21.7084C8.52859 21.8352 8.36956 21.9253 8.19544 21.9694L4.24544 22.9694C3.90431 23.0558 3.54288 22.9565 3.29376 22.7079C3.04463 22.4594 2.94447 22.0982 3.03002 21.7569L4.02002 17.8069C4.06396 17.6316 4.15459 17.4714 4.28226 17.3435L9.71226 11.9035C10.0001 11.6157 10.3425 11.3866 10.7187 11.2309Z" fill="#FEFEFE"/>
</svg>
