<svg width="24" height="24" viewBox="0 0 24 24" fill="none" xmlns="http://www.w3.org/2000/svg">
<path fill-rule="evenodd" clip-rule="evenodd" d="M3.89289 1.89289C4.47445 1.31134 5.22644 1 6 1H14.5C14.7652 1 15.0196 1.10536 15.2071 1.29289L20.7071 6.79289C20.8946 6.98043 21 7.23478 21 7.5V20C21 20.7736 20.6887 21.5256 20.1071 22.1071C19.5256 22.6887 18.7736 23 18 23H17.5C16.9477 23 16.5 22.5523 16.5 22C16.5 21.4477 16.9477 21 17.5 21H18C18.2264 21 18.4744 20.9113 18.6929 20.6929C18.9113 20.4744 19 20.2264 19 20V7.91421L14.0858 3H6C5.77356 3 5.52555 3.08866 5.30711 3.30711C5.08866 3.52555 5 3.77356 5 4V7C5 7.55228 4.55228 8 4 8C3.44772 8 3 7.55228 3 7V4C3 3.22644 3.31134 2.47445 3.89289 1.89289Z" fill="#FEFEFE"/>
<path fill-rule="evenodd" clip-rule="evenodd" d="M14 1C14.5523 1 15 1.44772 15 2V7H20C20.5523 7 21 7.44772 21 8C21 8.55228 20.5523 9 20 9H14C13.4477 9 13 8.55228 13 8V2C13 1.44772 13.4477 1 14 1Z" fill="#FEFEFE"/>
<path fill-rule="evenodd" clip-rule="evenodd" d="M12 18C11.7348 18 11.4804 18.1054 11.2929 18.2929C11.1054 18.4804 11 18.7348 11 19V20C11 20.2652 11.1054 20.5196 11.2929 20.7071C11.4804 20.8946 11.7348 21 12 21C12.2652 21 12.5196 20.8946 12.7071 20.7071C12.8946 20.5196 13 20.2652 13 20V19C13 18.7348 12.8946 18.4804 12.7071 18.2929C12.5196 18.1054 12.2652 18 12 18ZM9.87868 16.8787C10.4413 16.3161 11.2043 16 12 16C12.7957 16 13.5587 16.3161 14.1213 16.8787C14.6839 17.4413 15 18.2043 15 19V20C15 20.7957 14.6839 21.5587 14.1213 22.1213C13.5587 22.6839 12.7957 23 12 23C11.2043 23 10.4413 22.6839 9.87868 22.1213C9.31607 21.5587 9 20.7957 9 20V19C9 18.2043 9.31607 17.4413 9.87868 16.8787Z" fill="#FEFEFE"/>
<path fill-rule="evenodd" clip-rule="evenodd" d="M1.87868 16.8787C2.44129 16.3161 3.20435 16 4 16C4.79565 16 5.55871 16.3161 6.12132 16.8787C6.68393 17.4413 7 18.2044 7 19V20C7 20.7956 6.68393 21.5587 6.12132 22.1213C5.55871 22.6839 4.79565 23 4 23C3.20435 23 2.44129 22.6839 1.87868 22.1213C1.31607 21.5587 1 20.7956 1 20V19C1 18.2044 1.31607 17.4413 1.87868 16.8787ZM4 18C3.73478 18 3.48043 18.1054 3.29289 18.2929C3.10536 18.4804 3 18.7348 3 19V20C3 20.2652 3.10536 20.5196 3.29289 20.7071C3.48043 20.8946 3.73478 21 4 21C4.26522 21 4.51957 20.8946 4.70711 20.7071C4.89464 20.5196 5 20.2652 5 20V19C5 18.7348 4.89464 18.4804 4.70711 18.2929C4.51957 18.1054 4.26522 18 4 18Z" fill="#FEFEFE"/>
<path fill-rule="evenodd" clip-rule="evenodd" d="M8 11C6.67392 11 5.40215 11.5268 4.46447 12.4645C3.52678 13.4021 3 14.6739 3 16V19C3 19.5523 2.55228 20 2 20C1.44772 20 1 19.5523 1 19V16C1 14.1435 1.7375 12.363 3.05025 11.0503C4.36301 9.7375 6.14348 9 8 9C9.85652 9 11.637 9.7375 12.9497 11.0503C14.2625 12.363 15 14.1435 15 16V19C15 19.5523 14.5523 20 14 20C13.4477 20 13 19.5523 13 19V16C13 14.6739 12.4732 13.4021 11.5355 12.4645C10.5979 11.5268 9.32608 11 8 11Z" fill="#FEFEFE"/>
</svg>
