<svg width="24" height="24" viewBox="0 0 24 24" fill="none" xmlns="http://www.w3.org/2000/svg">
<path fill-rule="evenodd" clip-rule="evenodd" d="M13.0393 1.9054L15.75 4.50022V2.99991C15.75 2.5857 16.0858 2.24991 16.5 2.24991H18.75C19.1642 2.24991 19.5 2.5857 19.5 2.99991V8.08992L23.0186 11.4581C23.3178 11.7446 23.3282 12.2193 23.0418 12.5185C22.7554 12.8178 22.2806 12.8281 21.9814 12.5417L21 11.6023V20.9999C21 21.3977 20.842 21.7793 20.5607 22.0606C20.2794 22.3419 19.8978 22.4999 19.5 22.4999H15C14.5858 22.4999 14.25 22.1641 14.25 21.7499V15.3749C14.25 15.2755 14.2105 15.1801 14.1402 15.1098C14.0698 15.0394 13.9745 14.9999 13.875 14.9999H10.125C10.0255 14.9999 9.93016 15.0394 9.85984 15.1098C9.78951 15.1801 9.75 15.2755 9.75 15.3749V21.7499C9.75 22.1641 9.41422 22.4999 9 22.4999H4.5C4.10218 22.4999 3.72065 22.3419 3.43934 22.0606C3.15804 21.7793 3 21.3977 3 20.9999V11.6023L2.01862 12.5417C1.71941 12.8281 1.24465 12.8178 0.958217 12.5185C0.67179 12.2193 0.682159 11.7446 0.981378 11.4581L10.9613 1.90478C11.2673 1.59462 11.6842 1.50016 12.0029 1.50073C12.3203 1.5013 12.7358 1.59653 13.0393 1.9054ZM4.5 10.1664V20.9999H8.25V15.3749C8.25 14.8776 8.44755 14.4007 8.79918 14.0491C9.1508 13.6975 9.62772 13.4999 10.125 13.4999H13.875C14.3723 13.4999 14.8492 13.6975 15.2008 14.0491C15.5525 14.4007 15.75 14.8776 15.75 15.3749V20.9999H19.5V10.1664L12.015 3.00139C12.0105 3.00098 12.0055 3.00074 12.0002 3.00073C11.9948 3.00072 11.9897 3.00096 11.985 3.00137L4.5 10.1664ZM18 6.65404V3.74991H17.25V5.9361L18 6.65404Z" fill="#FEFEFE"/>
</svg>
