<svg width="24" height="24" viewBox="0 0 24 24" fill="none" xmlns="http://www.w3.org/2000/svg">
<g clip-path="url(#clip0_2_1588)">
<path fill-rule="evenodd" clip-rule="evenodd" d="M8.24782 3.17395e-06L8.25 0H18.75L18.7522 3.17395e-06C19.5465 0.00230996 20.3077 0.318891 20.8694 0.880592C21.4311 1.44229 21.7477 2.20346 21.75 2.99782L21.75 3V20.25C21.75 20.5383 21.5847 20.8011 21.3249 20.926C21.065 21.0509 20.7566 21.0158 20.5315 20.8357L18 18.8105V23.25C18 23.5417 17.8309 23.807 17.5664 23.93C17.3019 24.0531 16.99 24.0116 16.7669 23.8237L10.125 18.2305L3.4831 23.8237C3.25997 24.0116 2.94812 24.0531 2.68363 23.93C2.41915 23.807 2.25 23.5417 2.25 23.25V6.75L2.25 6.74782C2.25231 5.95346 2.56889 5.19229 3.13059 4.63059C3.69229 4.06889 4.45346 3.75231 5.24782 3.75L5.25 3.75V3L5.25 2.99782C5.25231 2.20346 5.56889 1.44229 6.13059 0.880592C6.69229 0.318891 7.45346 0.00230996 8.24782 3.17395e-06ZM18 16.8895L20.25 18.6895V3.00128C20.2486 2.60356 20.09 2.2225 19.8087 1.94125C19.5275 1.66002 19.1465 1.50141 18.7488 1.5H8.25119C7.8535 1.50141 7.47248 1.66002 7.19125 1.94125C6.91002 2.22248 6.75142 2.60349 6.75 3.00118V3.75H15L15.0022 3.75C15.7965 3.75231 16.5577 4.06889 17.1194 4.63059C17.6811 5.19229 17.9977 5.95346 18 6.74782L18 6.75V16.8895ZM5.25118 5.25C4.85349 5.25142 4.47248 5.41002 4.19125 5.69125C3.91002 5.97248 3.75141 6.3535 3.75 6.75119V21.6379L9.6419 16.6763C9.92107 16.4412 10.3289 16.4412 10.6081 16.6763L16.5 21.6379V6.75128C16.4986 6.35356 16.34 5.97251 16.0587 5.69125C15.7775 5.41002 15.3965 5.25142 14.9988 5.25H5.25118Z" fill="#FEFEFE"/>
</g>
<defs>
<clipPath id="clip0_2_1588">
<rect width="24" height="24" fill="white"/>
</clipPath>
</defs>
</svg>
