<svg width="24" height="24" viewBox="0 0 24 24" fill="none" xmlns="http://www.w3.org/2000/svg">
<path fill-rule="evenodd" clip-rule="evenodd" d="M2 12C2 11.4477 2.44772 11 3 11H12C12.5523 11 13 11.4477 13 12C13 12.5523 12.5523 13 12 13H3C2.44772 13 2 12.5523 2 12Z" fill="#FEFEFE"/>
<path fill-rule="evenodd" clip-rule="evenodd" d="M2 6C2 5.44772 2.44772 5 3 5H16C16.5523 5 17 5.44772 17 6C17 6.55228 16.5523 7 16 7H3C2.44772 7 2 6.55228 2 6Z" fill="#FEFEFE"/>
<path fill-rule="evenodd" clip-rule="evenodd" d="M2 18C2 17.4477 2.44772 17 3 17H12C12.5523 17 13 17.4477 13 18C13 18.5523 12.5523 19 12 19H3C2.44772 19 2 18.5523 2 18Z" fill="#FEFEFE"/>
<path fill-rule="evenodd" clip-rule="evenodd" d="M15.5073 11.1298C15.8208 10.9523 16.2056 10.9571 16.5145 11.1425L21.5145 14.1425C21.8157 14.3232 22 14.6487 22 15C22 15.3513 21.8157 15.6768 21.5145 15.8575L16.5145 18.8575C16.2056 19.0429 15.8208 19.0477 15.5073 18.8702C15.1938 18.6927 15 18.3603 15 18V12C15 11.6397 15.1938 11.3073 15.5073 11.1298ZM17 13.7662V16.2338L19.0563 15L17 13.7662Z" fill="#FEFEFE"/>
</svg>
