<svg width="24" height="24" viewBox="0 0 24 24" fill="none" xmlns="http://www.w3.org/2000/svg">
<path d="M12.2603 4.7475C12.1905 4.68074 12.0976 4.64348 12.0011 4.64348C11.9045 4.64348 11.8116 4.68074 11.7418 4.7475L3.11215 12.9914C3.0755 13.0265 3.04635 13.0686 3.02644 13.1152C3.00654 13.1619 2.99631 13.2121 2.99637 13.2628L2.99496 21C2.99496 21.3978 3.153 21.7794 3.4343 22.0607C3.71561 22.342 4.09714 22.5 4.49496 22.5H8.99965C9.19856 22.5 9.38933 22.421 9.52998 22.2803C9.67063 22.1397 9.74965 21.9489 9.74965 21.75V15.375C9.74965 15.2755 9.78916 15.1802 9.85949 15.1098C9.92981 15.0395 10.0252 15 10.1247 15H13.8747C13.9741 15 14.0695 15.0395 14.1398 15.1098C14.2101 15.1802 14.2497 15.2755 14.2497 15.375V21.75C14.2497 21.9489 14.3287 22.1397 14.4693 22.2803C14.61 22.421 14.8007 22.5 14.9997 22.5H19.5025C19.9003 22.5 20.2818 22.342 20.5631 22.0607C20.8444 21.7794 21.0025 21.3978 21.0025 21V13.2628C21.0025 13.2121 20.9923 13.1619 20.9724 13.1152C20.9525 13.0686 20.9233 13.0265 20.8867 12.9914L12.2603 4.7475Z" fill="#FEFEFE"/>
<path d="M23.0111 11.4445L19.5048 8.09016V3C19.5048 2.80109 19.4258 2.61032 19.2851 2.46967C19.1445 2.32902 18.9537 2.25 18.7548 2.25H16.5048C16.3059 2.25 16.1151 2.32902 15.9745 2.46967C15.8338 2.61032 15.7548 2.80109 15.7548 3V4.5L13.0398 1.90406C12.7857 1.64719 12.4079 1.5 11.9997 1.5C11.5928 1.5 11.2159 1.64719 10.9618 1.90453L0.991527 11.4436C0.699964 11.7248 0.663402 12.1875 0.928714 12.4922C0.995338 12.5691 1.07691 12.6316 1.16848 12.676C1.26004 12.7204 1.35968 12.7457 1.46133 12.7503C1.56297 12.755 1.6645 12.7389 1.75973 12.7031C1.85497 12.6672 1.94191 12.6124 2.01528 12.5419L11.7418 3.2475C11.8116 3.18074 11.9045 3.14348 12.0011 3.14348C12.0976 3.14348 12.1905 3.18074 12.2603 3.2475L21.9878 12.5419C22.1311 12.6793 22.323 12.7543 22.5215 12.7504C22.72 12.7465 22.9088 12.6641 23.0467 12.5212C23.3345 12.2231 23.3106 11.7309 23.0111 11.4445Z" fill="#FEFEFE"/>
</svg>
