<svg width="24" height="24" viewBox="0 0 24 24" fill="none" xmlns="http://www.w3.org/2000/svg">
<g clip-path="url(#clip0_2_1586)">
<path d="M18.7481 0H8.24814C7.58301 0.00054868 6.93687 0.221737 6.41094 0.628907C5.88501 1.03608 5.50902 1.60622 5.34189 2.25H16.0294C16.9494 2.25 17.8316 2.61546 18.4822 3.26597C19.1327 3.91649 19.4981 4.79878 19.4981 5.71875V20.0105L20.5294 20.8355C20.6572 20.9378 20.815 20.9955 20.9787 20.9997C21.1424 21.004 21.303 20.9545 21.4359 20.8589C21.5342 20.7864 21.6137 20.6915 21.668 20.5821C21.7223 20.4727 21.7498 20.352 21.7481 20.2298V3C21.7481 2.20435 21.4321 1.44129 20.8695 0.87868C20.3068 0.316071 19.5438 0 18.7481 0Z" fill="#FEFEFE"/>
<path d="M14.9981 3.75H5.24814C4.45249 3.75 3.68942 4.06607 3.12682 4.62868C2.56421 5.19129 2.24814 5.95435 2.24814 6.75V23.2322C2.24629 23.3538 2.27338 23.474 2.32717 23.5831C2.38096 23.6922 2.45991 23.7868 2.55751 23.8594C2.6931 23.9578 2.85775 24.0081 3.0252 24.002C3.19266 23.996 3.35327 23.9341 3.48142 23.8261L10.1231 18.2306L16.7649 23.8237C16.8922 23.931 17.0515 23.9929 17.2179 23.9996C17.3842 24.0063 17.5481 23.9574 17.6836 23.8608C17.7824 23.7884 17.8625 23.6935 17.9172 23.5839C17.972 23.4743 17.9997 23.3533 17.9981 23.2308V6.75C17.9981 5.95435 17.6821 5.19129 17.1195 4.62868C16.5568 4.06607 15.7938 3.75 14.9981 3.75Z" fill="#FEFEFE"/>
</g>
<defs>
<clipPath id="clip0_2_1586">
<rect width="24" height="24" fill="white"/>
</clipPath>
</defs>
</svg>
