<svg width="24" height="24" viewBox="0 0 24 24" fill="none" xmlns="http://www.w3.org/2000/svg">
<path d="M18.84 7.35001H15.01C14.29 7.35001 13.62 6.97001 13.25 6.35001L12.6 5.26001C12.23 4.64001 11.56 4.26001 10.84 4.26001H4.81C3.67 4.26001 2.75 5.18001 2.75 6.32001V9.39999L2.75 9.72984C2.75 9.84413 2.75 9.63 2.75 9.75V17.3C2.75 18.63 3.83 19.71 5.16 19.71H18.84C20.17 19.71 21.25 18.63 21.25 17.3V9.75C21.25 8.43 20.17 7.35001 18.84 7.35001Z" stroke="#FEFEFE" stroke-width="1.5" stroke-linecap="round" stroke-linejoin="round"/>
<path d="M18.84 7.35001H2.75V17.32C2.75 18.65 3.83 19.73 5.16 19.73H18.84C20.17 19.73 21.25 18.65 21.25 17.32V9.76999C21.25 8.42999 20.17 7.35001 18.84 7.35001Z" fill="#FEFEFE"/>
</svg>
