<svg width="25" height="25" viewBox="0 0 25 25" fill="none" xmlns="http://www.w3.org/2000/svg">
<g clip-path="url(#clip0_202_2)">
<path d="M3.66251 21.3375C2.46863 20.1844 1.51635 18.8051 0.86124 17.2801C0.206128 15.755 -0.1387 14.1148 -0.153123 12.455C-0.167546 10.7953 0.148726 9.14928 0.777237 7.61307C1.40575 6.07687 2.33391 4.68122 3.50757 3.50756C4.68123 2.3339 6.07688 1.40574 7.61308 0.777229C9.14929 0.148718 10.7953 -0.167553 12.455 -0.153131C14.1148 -0.138708 15.755 0.20612 17.2801 0.861232C18.8051 1.51634 20.1844 2.46862 21.3375 3.6625C23.6145 6.02003 24.8744 9.17756 24.8459 12.455C24.8175 15.7325 23.5028 18.8676 21.1852 21.1852C18.8676 23.5028 15.7325 24.8174 12.455 24.8459C9.17756 24.8744 6.02003 23.6145 3.66251 21.3375ZM8.75001 7.5V17.5H11.25V7.5H8.75001ZM13.75 7.5V17.5H16.25V7.5H13.75Z" fill="#FEFEFE"/>
</g>
<defs>
<clipPath id="clip0_202_2">
<rect width="25" height="25" fill="white"/>
</clipPath>
</defs>
</svg>
