<svg width="24" height="24" viewBox="0 0 24 24" fill="none" xmlns="http://www.w3.org/2000/svg">
<path fill-rule="evenodd" clip-rule="evenodd" d="M2.66713 10.6746C2.66713 9.62327 2.87421 8.58221 3.27655 7.61088C3.67889 6.63955 4.2686 5.75698 5.01203 5.01355C5.75545 4.27013 6.63802 3.68041 7.60935 3.27808C8.58068 2.87574 9.62175 2.66866 10.6731 2.66866C11.7245 2.66866 12.7655 2.87574 13.7369 3.27808C14.7082 3.68041 15.5908 4.27013 16.3342 5.01355C17.0776 5.75698 17.6673 6.63955 18.0697 7.61088C18.472 8.58221 18.6791 9.62327 18.6791 10.6746C18.6791 12.7979 17.8356 14.8343 16.3342 16.3357C14.8328 17.8371 12.7964 18.6806 10.6731 18.6806C8.54979 18.6806 6.51344 17.8371 5.01203 16.3357C3.51062 14.8343 2.66713 12.7979 2.66713 10.6746ZM10.6731 6.59376e-08C8.97432 0.000243283 7.30012 0.405927 5.78965 1.18334C4.27918 1.96074 2.97607 3.08743 1.9886 4.46974C1.00114 5.85206 0.357853 7.45009 0.112199 9.13102C-0.133456 10.812 0.0256202 12.5272 0.576205 14.1343C1.12679 15.7414 2.05298 17.1939 3.27781 18.371C4.50264 19.5482 5.99072 20.416 7.6184 20.9024C9.24607 21.3888 10.9663 21.4797 12.6362 21.1675C14.306 20.8553 15.8773 20.1491 17.2193 19.1076L21.7387 23.627C21.9904 23.87 22.3274 24.0045 22.6773 24.0015C23.0271 23.9984 23.3618 23.8581 23.6092 23.6107C23.8566 23.3633 23.9969 23.0286 23.9999 22.6788C24.003 22.3289 23.8685 21.9919 23.6254 21.7402L19.1061 17.2208C20.3311 15.6429 21.0888 13.753 21.293 11.7658C21.4972 9.77864 21.1397 7.77406 20.2612 5.97999C19.3826 4.18593 18.0183 2.67438 16.3233 1.61724C14.6283 0.560096 12.6707 -0.000221926 10.6731 6.59376e-08ZM10.6731 16.0119C12.0886 16.0119 13.4462 15.4496 14.4472 14.4487C15.4481 13.4477 16.0104 12.0902 16.0104 10.6746C16.0104 9.25909 15.4481 7.90152 14.4472 6.90058C13.4462 5.89964 12.0886 5.33732 10.6731 5.33732C9.25756 5.33732 7.89999 5.89964 6.89905 6.90058C5.89811 7.90152 5.33579 9.25909 5.33579 10.6746C5.33579 12.0902 5.89811 13.4477 6.89905 14.4487C7.89999 15.4496 9.25756 16.0119 10.6731 16.0119Z" fill="#FEFEFE"/>
</svg>
